<svg xmlns="http://www.w3.org/2000/svg" xmlns:xlink="http://www.w3.org/1999/xlink" width="1400" height="634" viewBox="0 0 1400 634"><defs><pattern id="a" preserveAspectRatio="none" width="100%" height="100%" viewBox="0 0 386 354"><image width="386" height="354" xlink:href="03%20Best%20and%20Trusted-image.png"/></pattern></defs><g transform="translate(-7 -662.668)"><rect width="1400" height="634" transform="translate(7 662.668)" fill="#0076a3"/><path d="M5.616,0H124.407a5.606,5.606,0,0,1,5.616,5.6V32.158a5.606,5.606,0,0,1-5.616,5.6H5.616A5.606,5.606,0,0,1,0,32.158V5.6A5.606,5.606,0,0,1,5.616,0Z" transform="translate(190.178 1087.783)"/><text transform="translate(261 1112.668)" fill="#fff" font-size="16" font-family="SegoeUI, Segoe UI"><tspan x="-47.246" y="0">GET STARTED</tspan></text><text transform="translate(191.602 1001.668)" fill="#fff" font-size="16.5" font-family="Roboto-Regular, Roboto"><tspan x="0" y="17">Whether you are a business owner or a courier, </tspan><tspan x="0" y="42">our user-friendly interface will help you to manage your</tspan><tspan x="0" y="67">parcels in a minute. </tspan></text><text transform="translate(191 926.668)" fill="#fff" font-size="40" font-family="Verdana"><tspan x="0" y="0">COURIER SERVICES</tspan><tspan x="0" y="48">IN THE WORLD</tspan></text><text transform="translate(395.602 874.668)" fill="#fff" font-size="28" font-family="Roboto-Regular, Roboto"><tspan x="-199.315" y="0">THE BEST AND MOST TRUSTED</tspan></text><rect width="333" height="305" transform="translate(841 835.668)" fill="url(#a)"/></g></svg>